<svg width="170" height="29" viewBox="0 0 170 29" fill="none" xmlns="http://www.w3.org/2000/svg">
<path d="M27.943 0V4.71249C27.943 8.27606 25.5517 11.2746 22.292 12.1868V5.29327H15.9111C16.9369 2.21894 19.8347 0 23.2454 0H27.9398H27.943Z" fill="#AA6C39"/>
<path d="M12.0853 22.5871C11.1036 25.7403 8.16805 28.0319 4.69758 28.0319H0V23.3225C0 19.9799 2.10494 17.136 5.05312 16.0376V22.5871H12.0853Z" fill="#AA6C39"/>
<path d="M12.4346 7.76472V12.4741H7.737C6.79308 12.4741 5.88691 12.3068 5.05312 11.9943C2.10494 10.899 0 8.05195 0 4.71249V0H4.69758C8.11142 0 11.0093 2.21894 12.035 5.29327C12.2961 6.06974 12.4346 6.89987 12.4346 7.76472Z" fill="#AA6C39"/>
<path d="M27.9434 23.3226V28.0319H23.2458C19.7785 28.0319 16.8429 25.7404 15.8612 22.5871C15.6315 21.8549 15.5088 21.0752 15.5088 20.2704V15.5579H20.2064C20.9269 15.5579 21.6285 15.6557 22.2924 15.8451C25.5521 16.7573 27.9434 19.759 27.9434 23.3226Z" fill="#AA6C39"/>
<path d="M58.4631 2.28198H59.6336V25.7876C56.4997 25.7876 53.539 24.3452 51.6008 21.8769L41.611 9.15976V22.0883C41.611 24.1305 39.9591 25.7876 37.9234 25.7876H36.7529V2.28198H36.7718C39.893 2.28198 42.8444 3.71183 44.7857 6.1675L54.7755 18.8057V5.98127C54.7755 3.93909 56.4274 2.28198 58.4631 2.28198Z" fill="#AA6C39"/>
<path d="M84.8047 10.1983V18.0451C84.8047 23.1616 79.9813 26.1349 73.8804 26.1349C67.7795 26.1349 62.9907 23.1268 62.9907 18.0451V10.1983C62.9907 5.08175 67.8142 1.93799 73.8804 1.93799C79.9467 1.93799 84.8047 5.08491 84.8047 10.1983ZM79.566 10.476C79.566 7.74575 76.7059 6.25909 73.8804 6.25909C70.5043 6.25909 68.2295 7.78047 68.2295 10.476V17.7357C68.2295 20.5007 70.6774 21.8485 73.8804 21.8485C77.0834 21.8485 79.566 20.5007 79.566 17.7357V10.476Z" fill="white"/>
<path d="M91.9818 6.60308H87.2622V2.28198H92.4475C95.103 2.28198 97.2552 4.44095 97.2552 7.10495V25.7908H91.9818V6.60308Z" fill="white"/>
<path d="M122.983 2.28198C122.983 4.28945 122.266 6.23063 120.957 7.74885L109.199 21.4318H118.572C120.969 21.4318 122.914 23.3825 122.914 25.7876H101.962V25.7813C101.962 23.7581 102.692 21.8011 104.02 20.2766L115.85 6.67252H106.477C104.079 6.67252 102.135 4.72187 102.135 2.3167V2.28198H122.983Z" fill="#AA6C39"/>
<path d="M131.418 15.9365V21.5013H145.168V25.7876H130.777C128.237 25.7876 126.18 23.7234 126.18 21.1761V6.89347C126.18 4.34626 128.237 2.28198 130.777 2.28198H144.445V6.60308H131.418V11.7543H142.343V15.9365H131.418Z" fill="#AA6C39"/>
<path d="M147.088 6.6378C147.088 4.23263 149.032 2.28198 151.43 2.28198H170.003C170.003 4.68715 168.058 6.6378 165.661 6.6378H161.077V25.7876H155.838V6.6378H147.084H147.088Z" fill="#AA6C39"/>
</svg>
