<svg width="15" height="16" viewBox="0 0 15 16" fill="none" xmlns="http://www.w3.org/2000/svg">
<g clip-path="url(#clip0_670_233)">
<g clip-path="url(#clip1_670_233)">
<path d="M7.75 3.5281C6.76357 3.5281 5.79928 3.82061 4.97909 4.36865C4.1589 4.91668 3.51964 5.69562 3.14215 6.60697C2.76466 7.51831 2.66589 8.52113 2.85833 9.48861C3.05078 10.4561 3.52579 11.3448 4.2233 12.0423C4.92082 12.7398 5.80951 13.2148 6.77699 13.4073C7.74447 13.5997 8.74729 13.5009 9.65863 13.1234C10.57 12.746 11.3489 12.1067 11.897 11.2865C12.445 10.4663 12.7375 9.50203 12.7375 8.5156C12.736 7.1933 12.21 5.92559 11.275 4.99058C10.34 4.05557 9.0723 3.52961 7.75 3.5281ZM7.75 12.6718C6.92797 12.6718 6.1244 12.4281 5.44091 11.9714C4.75742 11.5147 4.2247 10.8656 3.91012 10.1061C3.59555 9.34667 3.51324 8.51099 3.67361 7.70476C3.83398 6.89852 4.22982 6.15795 4.81109 5.57669C5.39235 4.99543 6.13292 4.59958 6.93916 4.43921C7.74539 4.27884 8.58107 4.36115 9.34053 4.67573C10.1 4.9903 10.7491 5.52302 11.2058 6.20651C11.6625 6.89 11.9062 7.69357 11.9062 8.5156C11.905 9.61753 11.4667 10.674 10.6875 11.4531C9.90837 12.2323 8.85193 12.6706 7.75 12.6718ZM10.1222 6.14342C10.1608 6.18202 10.1915 6.22786 10.2124 6.27832C10.2333 6.32877 10.2441 6.38286 10.2441 6.43748C10.2441 6.49209 10.2333 6.54618 10.2124 6.59663C10.1915 6.64709 10.1608 6.69293 10.1222 6.73153L8.04405 8.80966C8.00544 8.84827 7.95959 8.8789 7.90914 8.8998C7.85869 8.9207 7.80461 8.93146 7.75 8.93146C7.69539 8.93146 7.64131 8.9207 7.59086 8.8998C7.5404 8.8789 7.49456 8.84827 7.45594 8.80966C7.41733 8.77104 7.3867 8.7252 7.3658 8.67474C7.3449 8.62429 7.33414 8.57021 7.33414 8.5156C7.33414 8.46099 7.3449 8.40691 7.3658 8.35646C7.3867 8.306 7.41733 8.26016 7.45594 8.22155L9.53407 6.14342C9.57267 6.10478 9.61851 6.07412 9.66896 6.05321C9.71942 6.03229 9.7735 6.02152 9.82812 6.02152C9.88274 6.02152 9.93683 6.03229 9.98728 6.05321C10.0377 6.07412 10.0836 6.10478 10.1222 6.14342ZM6.0875 2.28123C6.0875 2.17099 6.13129 2.06528 6.20923 1.98733C6.28718 1.90939 6.39289 1.8656 6.50312 1.8656H8.99687C9.10711 1.8656 9.21282 1.90939 9.29077 1.98733C9.36871 2.06528 9.4125 2.17099 9.4125 2.28123C9.4125 2.39146 9.36871 2.49717 9.29077 2.57512C9.21282 2.65306 9.10711 2.69685 8.99687 2.69685H6.50312C6.39289 2.69685 6.28718 2.65306 6.20923 2.57512C6.13129 2.49717 6.0875 2.39146 6.0875 2.28123Z" fill="url(#paint0_linear_670_233)"/>
</g>
</g>
<defs>
<linearGradient id="paint0_linear_670_233" x1="7.75" y1="1.8656" x2="7.75" y2="13.5031" gradientUnits="userSpaceOnUse">
<stop stop-color="#F9D255"/>
<stop offset="1" stop-color="#CD6A3A"/>
</linearGradient>
<clipPath id="clip0_670_233">
<rect width="14.56" height="15.673" fill="white" transform="translate(0.399994 0.0499268)"/>
</clipPath>
<clipPath id="clip1_670_233">
<rect width="13.3" height="13.3" fill="white" transform="translate(1.09999 1.44995)"/>
</clipPath>
</defs>
</svg>
