<svg width="12" height="14" viewBox="0 0 12 14" fill="none" xmlns="http://www.w3.org/2000/svg">
<g filter="url(#filter0_i_670_1715)">
<path d="M0.521118 9.27799C0.521118 6.16739 2.86391 3.64551 5.75362 3.64551H6.00978C8.89903 3.64551 11.2423 6.16739 11.2423 9.27799V9.41807C11.2423 10.5612 10.8204 11.6575 10.0695 12.4658C9.31864 13.274 8.30021 13.7281 7.23828 13.7281H4.52512C3.46319 13.7281 2.44476 13.274 1.69386 12.4658C0.942967 11.6575 0.521118 10.5612 0.521118 9.41807V9.27799Z" fill="url(#paint0_radial_670_1715)"/>
<path d="M0.521118 9.27799C0.521118 6.16739 2.86391 3.64551 5.75362 3.64551H6.00978C8.89903 3.64551 11.2423 6.16739 11.2423 9.27799V9.41807C11.2423 10.5612 10.8204 11.6575 10.0695 12.4658C9.31864 13.274 8.30021 13.7281 7.23828 13.7281H4.52512C3.46319 13.7281 2.44476 13.274 1.69386 12.4658C0.942967 11.6575 0.521118 10.5612 0.521118 9.41807V9.27799Z" fill="url(#paint1_radial_670_1715)"/>
</g>
<path d="M0.521118 9.27799C0.521118 6.16739 2.86391 3.64551 5.75362 3.64551H6.00978C8.89903 3.64551 11.2423 6.16739 11.2423 9.27799V9.41807C11.2423 10.5612 10.8204 11.6575 10.0695 12.4658C9.31864 13.274 8.30021 13.7281 7.23828 13.7281H4.52512C3.46319 13.7281 2.44476 13.274 1.69386 12.4658C0.942967 11.6575 0.521118 10.5612 0.521118 9.41807V9.27799Z" fill="url(#paint2_radial_670_1715)"/>
<path d="M0.521118 9.27799C0.521118 6.16739 2.86391 3.64551 5.75362 3.64551H6.00978C8.89903 3.64551 11.2423 6.16739 11.2423 9.27799V9.41807C11.2423 10.5612 10.8204 11.6575 10.0695 12.4658C9.31864 13.274 8.30021 13.7281 7.23828 13.7281H4.52512C3.46319 13.7281 2.44476 13.274 1.69386 12.4658C0.942967 11.6575 0.521118 10.5612 0.521118 9.41807V9.27799Z" fill="url(#paint3_radial_670_1715)"/>
<g filter="url(#filter1_ii_670_1715)">
<path d="M4.03326 1.34946C4.24711 1.74177 4.55879 2.24527 4.95919 2.65816H6.80421C7.20461 2.24527 7.51583 1.74226 7.73013 1.34946C7.75577 1.3013 7.77197 1.24799 7.77774 1.19283C7.78351 1.13767 7.77872 1.08182 7.76367 1.02873C7.74862 0.97564 7.72363 0.926428 7.69024 0.884128C7.65685 0.841829 7.61577 0.807338 7.56952 0.782783C7.42392 0.702459 7.25284 0.740662 7.11134 0.829312C6.79193 1.02963 6.60765 0.793558 6.32601 0.329735C6.1845 0.0965996 5.96837 0.0843551 5.88147 0.0828857C5.79502 0.0843551 5.57889 0.0965996 5.43739 0.329735C5.15529 0.793558 4.97147 1.02963 4.65206 0.829312C4.51056 0.740662 4.33947 0.702459 4.19342 0.782783C4.14721 0.807383 4.10617 0.841905 4.07283 0.884224C4.03948 0.926544 4.01454 0.975763 3.99954 1.02885C3.98453 1.08194 3.97978 1.13777 3.98558 1.19291C3.99138 1.24805 4.00761 1.30133 4.03326 1.34946Z" fill="url(#paint4_linear_670_1715)"/>
</g>
<g filter="url(#filter2_f_670_1715)">
<path d="M6.144 6.0333C6.144 5.92939 6.10565 5.82972 6.03739 5.75624C5.96912 5.68276 5.87654 5.64148 5.78 5.64148C5.68346 5.64148 5.59088 5.68276 5.52261 5.75624C5.45435 5.82972 5.416 5.92939 5.416 6.0333V6.40309C5.416 6.49076 5.3614 6.56668 5.28541 6.59802C5.15415 6.65173 5.03043 6.72474 4.91777 6.815C4.75186 6.94581 4.61748 7.11751 4.52589 7.31572C4.4343 7.51393 4.38816 7.73288 4.39134 7.95423C4.39134 8.47339 4.60883 8.84955 4.90412 9.09052C5.18531 9.32072 5.5252 9.41965 5.79592 9.4461C5.90603 9.45688 6.07029 9.48871 6.20588 9.58079C6.32372 9.66062 6.44066 9.79727 6.46523 10.0902C6.48889 10.3703 6.38333 10.5368 6.24546 10.65C6.08621 10.7808 5.90103 10.8224 5.85416 10.8224C5.74451 10.8224 5.55659 10.8067 5.39734 10.7137C5.26357 10.6353 5.11979 10.4879 5.08976 10.1269C5.08114 10.0234 5.03466 9.92777 4.96055 9.86113C4.88644 9.79449 4.79077 9.76227 4.6946 9.77156C4.59842 9.78085 4.50961 9.83088 4.4477 9.91065C4.3858 9.99043 4.35587 10.0934 4.36449 10.1969C4.41636 10.8234 4.70574 11.201 5.05018 11.4028C5.12616 11.4469 5.20306 11.4816 5.27813 11.5091C5.31735 11.5223 5.35173 11.5483 5.37646 11.5837C5.40119 11.619 5.41502 11.6617 5.416 11.706V12.0405C5.416 12.1444 5.45435 12.2441 5.52261 12.3175C5.59088 12.391 5.68346 12.4323 5.78 12.4323C5.87654 12.4323 5.96912 12.391 6.03739 12.3175C6.10565 12.2441 6.144 12.1444 6.144 12.0405V11.7094C6.144 11.6212 6.19951 11.5443 6.27686 11.5135C6.41336 11.4596 6.55623 11.3802 6.68636 11.2735C6.98893 11.0252 7.24055 10.6123 7.1905 10.0196C7.14409 9.47059 6.88838 9.13999 6.5899 8.93722C6.36514 8.78964 6.11247 8.69825 5.85052 8.6698C5.43693 8.64678 5.11934 8.40091 5.11934 7.95423C5.11934 7.70836 5.21034 7.52812 5.34411 7.42036C5.6212 7.16764 6.09213 7.20192 6.31462 7.5193C6.4129 7.65987 6.45704 7.81464 6.46705 7.95423C6.48252 8.16973 6.65587 8.34164 6.85653 8.32499C7.05673 8.30883 7.20642 8.13985 7.19095 7.92386C7.16907 7.61369 7.06606 7.31653 6.89384 7.06674C6.75552 6.86887 6.49389 6.67982 6.27959 6.5848C6.24092 6.56917 6.20742 6.54158 6.18329 6.5055C6.15916 6.46942 6.14549 6.42646 6.144 6.38203V6.0333Z" fill="url(#paint5_linear_670_1715)"/>
</g>
<g filter="url(#filter3_ii_670_1715)">
<path d="M6.23501 5.98326C6.23501 5.87934 6.19666 5.77968 6.1284 5.70619C6.06014 5.63271 5.96755 5.59143 5.87101 5.59143C5.77447 5.59143 5.68189 5.63271 5.61363 5.70619C5.54536 5.77968 5.50701 5.87934 5.50701 5.98326V6.35304C5.50701 6.4412 5.45241 6.51663 5.37643 6.54797C5.24517 6.60169 5.12145 6.67471 5.00879 6.76495C4.84299 6.89584 4.70872 7.06757 4.61721 7.26577C4.5257 7.46397 4.47961 7.68288 4.48281 7.90418C4.48281 8.42335 4.69984 8.7995 4.99514 9.04047C5.27633 9.27067 5.61576 9.37009 5.88694 9.39654C5.99705 9.40732 6.1613 9.43866 6.29735 9.53074C6.41474 9.61058 6.53167 9.74722 6.5567 10.0401C6.58036 10.3208 6.47434 10.4873 6.33602 10.6004C6.17677 10.7312 5.99204 10.7723 5.94472 10.7723C5.83552 10.7723 5.64761 10.7567 5.48836 10.6641C5.35459 10.5857 5.21081 10.4378 5.18078 10.0773C5.17653 10.0261 5.16295 9.97621 5.14081 9.9306C5.11867 9.88499 5.08839 9.84452 5.05172 9.8115C5.01505 9.77848 4.97269 9.75356 4.92707 9.73816C4.88145 9.72276 4.83346 9.71719 4.78584 9.72176C4.73822 9.72632 4.6919 9.74094 4.64952 9.76478C4.60715 9.78861 4.56955 9.8212 4.53888 9.86068C4.5082 9.90016 4.48505 9.94575 4.47075 9.99486C4.45644 10.044 4.45126 10.0956 4.45551 10.1469C4.50738 10.7738 4.79676 11.1514 5.14119 11.3527C5.21718 11.3968 5.29407 11.4321 5.36915 11.459C5.44877 11.4884 5.50701 11.5658 5.50701 11.6564V11.9909C5.50701 12.0948 5.54536 12.1945 5.61363 12.268C5.68189 12.3415 5.77447 12.3827 5.87101 12.3827C5.96755 12.3827 6.06014 12.3415 6.1284 12.268C6.19666 12.1945 6.23501 12.0948 6.23501 11.9909V11.6598C6.23501 11.5712 6.29052 11.4948 6.36787 11.4639C6.50437 11.41 6.64724 11.3307 6.77737 11.2239C7.07995 10.9756 7.33156 10.5622 7.28151 9.96959C7.2351 9.42054 6.97939 9.09043 6.68091 8.88717C6.45616 8.73958 6.20348 8.64819 5.94154 8.61975C5.52794 8.59673 5.21035 8.35086 5.21035 7.90467C5.21035 7.6588 5.30135 7.47856 5.43512 7.37081C5.71222 7.11808 6.18314 7.15236 6.40564 7.46974C6.50392 7.61031 6.54805 7.76508 6.55806 7.90418C6.57353 8.11968 6.74689 8.29208 6.94754 8.27543C7.14774 8.25878 7.29744 8.08981 7.28197 7.87381C7.2601 7.56364 7.15709 7.26647 6.98485 7.01669C6.84653 6.81931 6.58491 6.62977 6.3706 6.53475C6.33194 6.51912 6.29843 6.49153 6.27431 6.45545C6.25018 6.41937 6.23651 6.37641 6.23501 6.33198V5.98326Z" fill="url(#paint6_linear_670_1715)"/>
</g>
<g filter="url(#filter4_i_670_1715)">
<path d="M6.69729 2.6582H5.04473C4.78063 2.6582 4.56653 2.88867 4.56653 3.17296V3.17639C4.56653 3.46069 4.78063 3.69115 5.04473 3.69115H6.69729C6.9614 3.69115 7.1755 3.46069 7.1755 3.17639V3.17296C7.1755 2.88867 6.9614 2.6582 6.69729 2.6582Z" fill="url(#paint7_linear_670_1715)"/>
<path d="M6.69729 2.6582H5.04473C4.78063 2.6582 4.56653 2.88867 4.56653 3.17296V3.17639C4.56653 3.46069 4.78063 3.69115 5.04473 3.69115H6.69729C6.9614 3.69115 7.1755 3.46069 7.1755 3.17639V3.17296C7.1755 2.88867 6.9614 2.6582 6.69729 2.6582Z" fill="url(#paint8_radial_670_1715)"/>
</g>
<path d="M6.69729 2.6582H5.04473C4.78063 2.6582 4.56653 2.88867 4.56653 3.17296V3.17639C4.56653 3.46069 4.78063 3.69115 5.04473 3.69115H6.69729C6.9614 3.69115 7.1755 3.46069 7.1755 3.17639V3.17296C7.1755 2.88867 6.9614 2.6582 6.69729 2.6582Z" fill="url(#paint9_radial_670_1715)"/>
<defs>
<filter id="filter0_i_670_1715" x="0.521118" y="2.59551" width="11.4212" height="11.1326" filterUnits="userSpaceOnUse" color-interpolation-filters="sRGB">
<feFlood flood-opacity="0" result="BackgroundImageFix"/>
<feBlend mode="normal" in="SourceGraphic" in2="BackgroundImageFix" result="shape"/>
<feColorMatrix in="SourceAlpha" type="matrix" values="0 0 0 0 0 0 0 0 0 0 0 0 0 0 0 0 0 0 127 0" result="hardAlpha"/>
<feOffset dx="0.7" dy="-1.05"/>
<feGaussianBlur stdDeviation="1.225"/>
<feComposite in2="hardAlpha" operator="arithmetic" k2="-1" k3="1"/>
<feColorMatrix type="matrix" values="0 0 0 0 0.713726 0 0 0 0 0.321569 0 0 0 0 0.211765 0 0 0 1 0"/>
<feBlend mode="normal" in2="shape" result="effect1_innerShadow_670_1715"/>
</filter>
<filter id="filter1_ii_670_1715" x="3.84318" y="-0.0921143" width="4.00694" height="2.89032" filterUnits="userSpaceOnUse" color-interpolation-filters="sRGB">
<feFlood flood-opacity="0" result="BackgroundImageFix"/>
<feBlend mode="normal" in="SourceGraphic" in2="BackgroundImageFix" result="shape"/>
<feColorMatrix in="SourceAlpha" type="matrix" values="0 0 0 0 0 0 0 0 0 0 0 0 0 0 0 0 0 0 127 0" result="hardAlpha"/>
<feOffset dx="-0.14" dy="0.14"/>
<feGaussianBlur stdDeviation="0.105"/>
<feComposite in2="hardAlpha" operator="arithmetic" k2="-1" k3="1"/>
<feColorMatrix type="matrix" values="0 0 0 0 1 0 0 0 0 0.92549 0 0 0 0 0.403922 0 0 0 1 0"/>
<feBlend mode="normal" in2="shape" result="effect1_innerShadow_670_1715"/>
<feColorMatrix in="SourceAlpha" type="matrix" values="0 0 0 0 0 0 0 0 0 0 0 0 0 0 0 0 0 0 127 0" result="hardAlpha"/>
<feOffset dx="0.07" dy="-0.175"/>
<feGaussianBlur stdDeviation="0.175"/>
<feComposite in2="hardAlpha" operator="arithmetic" k2="-1" k3="1"/>
<feColorMatrix type="matrix" values="0 0 0 0 0.788235 0 0 0 0 0.364706 0 0 0 0 0.12549 0 0 0 1 0"/>
<feBlend mode="normal" in2="effect1_innerShadow_670_1715" result="effect2_innerShadow_670_1715"/>
</filter>
<filter id="filter2_f_670_1715" x="4.15304" y="5.43148" width="3.25383" height="7.21077" filterUnits="userSpaceOnUse" color-interpolation-filters="sRGB">
<feFlood flood-opacity="0" result="BackgroundImageFix"/>
<feBlend mode="normal" in="SourceGraphic" in2="BackgroundImageFix" result="shape"/>
<feGaussianBlur stdDeviation="0.105" result="effect1_foregroundBlur_670_1715"/>
</filter>
<filter id="filter3_ii_670_1715" x="4.38407" y="5.45143" width="3.00883" height="7.03626" filterUnits="userSpaceOnUse" color-interpolation-filters="sRGB">
<feFlood flood-opacity="0" result="BackgroundImageFix"/>
<feBlend mode="normal" in="SourceGraphic" in2="BackgroundImageFix" result="shape"/>
<feColorMatrix in="SourceAlpha" type="matrix" values="0 0 0 0 0 0 0 0 0 0 0 0 0 0 0 0 0 0 127 0" result="hardAlpha"/>
<feOffset dx="0.105" dy="-0.14"/>
<feGaussianBlur stdDeviation="0.105"/>
<feComposite in2="hardAlpha" operator="arithmetic" k2="-1" k3="1"/>
<feColorMatrix type="matrix" values="0 0 0 0 0.352941 0 0 0 0 0.168627 0 0 0 0 0.188235 0 0 0 1 0"/>
<feBlend mode="normal" in2="shape" result="effect1_innerShadow_670_1715"/>
<feColorMatrix in="SourceAlpha" type="matrix" values="0 0 0 0 0 0 0 0 0 0 0 0 0 0 0 0 0 0 127 0" result="hardAlpha"/>
<feOffset dx="-0.07" dy="0.105"/>
<feGaussianBlur stdDeviation="0.077"/>
<feComposite in2="hardAlpha" operator="arithmetic" k2="-1" k3="1"/>
<feColorMatrix type="matrix" values="0 0 0 0 0.670588 0 0 0 0 0.458824 0 0 0 0 0.403922 0 0 0 1 0"/>
<feBlend mode="normal" in2="effect1_innerShadow_670_1715" result="effect2_innerShadow_670_1715"/>
</filter>
<filter id="filter4_i_670_1715" x="4.56653" y="2.2382" width="2.60898" height="1.45296" filterUnits="userSpaceOnUse" color-interpolation-filters="sRGB">
<feFlood flood-opacity="0" result="BackgroundImageFix"/>
<feBlend mode="normal" in="SourceGraphic" in2="BackgroundImageFix" result="shape"/>
<feColorMatrix in="SourceAlpha" type="matrix" values="0 0 0 0 0 0 0 0 0 0 0 0 0 0 0 0 0 0 127 0" result="hardAlpha"/>
<feOffset dy="-0.42"/>
<feGaussianBlur stdDeviation="0.35"/>
<feComposite in2="hardAlpha" operator="arithmetic" k2="-1" k3="1"/>
<feColorMatrix type="matrix" values="0 0 0 0 0.388235 0 0 0 0 0.223529 0 0 0 0 0.109804 0 0 0 1 0"/>
<feBlend mode="normal" in2="shape" result="effect1_innerShadow_670_1715"/>
</filter>
<radialGradient id="paint0_radial_670_1715" cx="0" cy="0" r="1" gradientUnits="userSpaceOnUse" gradientTransform="translate(7.34572 4.59088) rotate(99.368) scale(8.99729 8.79124)">
<stop stop-color="#F6C93B"/>
<stop offset="1" stop-color="#E88340"/>
</radialGradient>
<radialGradient id="paint1_radial_670_1715" cx="0" cy="0" r="1" gradientUnits="userSpaceOnUse" gradientTransform="translate(9.45066 5.99836) rotate(131.1) scale(3.33099 5.54002)">
<stop stop-color="#FFE065"/>
<stop offset="1" stop-color="#FFE065" stop-opacity="0"/>
</radialGradient>
<radialGradient id="paint2_radial_670_1715" cx="0" cy="0" r="1" gradientUnits="userSpaceOnUse" gradientTransform="translate(1.26049 5.99891) rotate(33.5667) scale(2.4914 6.36823)">
<stop offset="0.187" stop-color="#FFA45D"/>
<stop offset="1" stop-color="#FFA45D" stop-opacity="0"/>
</radialGradient>
<radialGradient id="paint3_radial_670_1715" cx="0" cy="0" r="1" gradientUnits="userSpaceOnUse" gradientTransform="translate(5.88147 11.4169) rotate(-90) scale(7.98956 11.1826)">
<stop offset="0.928" stop-color="#F3BD46" stop-opacity="0"/>
<stop offset="0.98" stop-color="#917011"/>
</radialGradient>
<linearGradient id="paint4_linear_670_1715" x1="6.45204" y1="0.955676" x2="5.80277" y2="2.62759" gradientUnits="userSpaceOnUse">
<stop stop-color="#F3C048"/>
<stop offset="1" stop-color="#E67A41"/>
</linearGradient>
<linearGradient id="paint5_linear_670_1715" x1="5.78" y1="5.8036" x2="5.78" y2="12.0792" gradientUnits="userSpaceOnUse">
<stop stop-color="#A6782C"/>
<stop offset="1" stop-color="#B95940"/>
</linearGradient>
<linearGradient id="paint6_linear_670_1715" x1="7.44577" y1="9.76388" x2="4.45414" y2="9.76388" gradientUnits="userSpaceOnUse">
<stop stop-color="#9D6360"/>
<stop offset="1" stop-color="#724A4D"/>
</linearGradient>
<linearGradient id="paint7_linear_670_1715" x1="4.92916" y1="3.17492" x2="7.1755" y2="3.17492" gradientUnits="userSpaceOnUse">
<stop stop-color="#834B41"/>
<stop offset="1" stop-color="#735854"/>
</linearGradient>
<radialGradient id="paint8_radial_670_1715" cx="0" cy="0" r="1" gradientUnits="userSpaceOnUse" gradientTransform="translate(6.7205 3.01427) rotate(180) scale(0.849571 0.688755)">
<stop stop-color="#7D5A54"/>
<stop offset="1" stop-color="#7D5A54" stop-opacity="0"/>
</radialGradient>
<radialGradient id="paint9_radial_670_1715" cx="0" cy="0" r="1" gradientUnits="userSpaceOnUse" gradientTransform="translate(6.83425 3.17492) rotate(180) scale(2.51672 2.17024)">
<stop offset="0.695" stop-color="#B3624D" stop-opacity="0"/>
<stop offset="0.96" stop-color="#B3624D"/>
</radialGradient>
</defs>
</svg>
