<svg width="21" height="21" viewBox="0 0 21 21" fill="none" xmlns="http://www.w3.org/2000/svg">
<path d="M18.9 10.6919C18.7397 10.5094 18.6513 10.2748 18.6513 10.0319C18.6513 9.78897 18.7397 9.55437 18.9 9.37188L20.18 7.93188C20.3211 7.77455 20.4087 7.57658 20.4302 7.36638C20.4518 7.15619 20.4062 6.94456 20.3 6.76188L18.3 3.30188C18.1949 3.1194 18.0349 2.97475 17.8428 2.88856C17.6506 2.80237 17.4362 2.77904 17.23 2.82188L15.35 3.20188C15.1108 3.25131 14.8618 3.21147 14.6499 3.08988C14.438 2.96829 14.278 2.77336 14.2 2.54188L13.59 0.711878C13.5229 0.513257 13.3951 0.340743 13.2246 0.218719C13.0542 0.0966965 12.8497 0.0313364 12.64 0.0318775H8.64002C8.42195 0.0204955 8.20615 0.0808039 8.02558 0.203592C7.84501 0.326379 7.7096 0.504897 7.64002 0.711878L7.08002 2.54188C7.00202 2.77336 6.84199 2.96829 6.63013 3.08988C6.41827 3.21147 6.16924 3.25131 5.93002 3.20188L4.00002 2.82188C3.80457 2.79426 3.60532 2.8251 3.42737 2.91052C3.24941 2.99593 3.10072 3.13211 3.00002 3.30188L1.00002 6.76188C0.891178 6.94253 0.84224 7.15296 0.860201 7.3631C0.878161 7.57324 0.962101 7.77232 1.10002 7.93188L2.37002 9.37188C2.53034 9.55437 2.61875 9.78897 2.61875 10.0319C2.61875 10.2748 2.53034 10.5094 2.37002 10.6919L1.10002 12.1319C0.962101 12.2914 0.878161 12.4905 0.860201 12.7007C0.84224 12.9108 0.891178 13.1212 1.00002 13.3019L3.00002 16.7619C3.10512 16.9444 3.26514 17.089 3.45727 17.1752C3.6494 17.2614 3.86384 17.2847 4.07002 17.2419L5.95002 16.8619C6.18924 16.8124 6.43827 16.8523 6.65013 16.9739C6.86199 17.0955 7.02202 17.2904 7.10002 17.5219L7.71002 19.3519C7.7796 19.5589 7.91501 19.7374 8.09558 19.8602C8.27615 19.983 8.49195 20.0433 8.71002 20.0319H12.71C12.9197 20.0324 13.1242 19.9671 13.2946 19.845C13.4651 19.723 13.5929 19.5505 13.66 19.3519L14.27 17.5219C14.348 17.2904 14.508 17.0955 14.7199 16.9739C14.9318 16.8523 15.1808 16.8124 15.42 16.8619L17.3 17.2419C17.5062 17.2847 17.7206 17.2614 17.9128 17.1752C18.1049 17.089 18.2649 16.9444 18.37 16.7619L20.37 13.3019C20.4762 13.1192 20.5218 12.9076 20.5002 12.6974C20.4787 12.4872 20.3911 12.2892 20.25 12.1319L18.9 10.6919ZM17.41 12.0319L18.21 12.9319L16.93 15.1519L15.75 14.9119C15.0298 14.7647 14.2806 14.887 13.6446 15.2557C13.0086 15.6244 12.5302 16.2137 12.3 16.9119L11.92 18.0319H9.36002L9.00002 16.8919C8.76987 16.1937 8.2914 15.6044 7.65542 15.2357C7.01945 14.867 6.27024 14.7447 5.55002 14.8919L4.37002 15.1319L3.07002 12.9219L3.87002 12.0219C4.36197 11.4719 4.63395 10.7598 4.63395 10.0219C4.63395 9.28395 4.36197 8.5719 3.87002 8.02188L3.07002 7.12188L4.35002 4.92188L5.53002 5.16188C6.25024 5.3091 6.99945 5.18676 7.63542 4.81808C8.2714 4.44939 8.74987 3.86004 8.98002 3.16188L9.36002 2.03188H11.92L12.3 3.17188C12.5302 3.87004 13.0086 4.45939 13.6446 4.82808C14.2806 5.19676 15.0298 5.3191 15.75 5.17188L16.93 4.93188L18.21 7.15188L17.41 8.05188C16.9236 8.60064 16.655 9.30856 16.655 10.0419C16.655 10.7752 16.9236 11.4831 17.41 12.0319ZM10.64 6.03188C9.84889 6.03188 9.07553 6.26647 8.41774 6.706C7.75994 7.14552 7.24725 7.77024 6.9445 8.50114C6.64175 9.23205 6.56254 10.0363 6.71688 10.8122C6.87122 11.5882 7.25218 12.3009 7.81159 12.8603C8.371 13.4197 9.08373 13.8007 9.85966 13.955C10.6356 14.1094 11.4398 14.0301 12.1708 13.7274C12.9017 13.4246 13.5264 12.912 13.9659 12.2542C14.4054 11.5964 14.64 10.823 14.64 10.0319C14.64 8.97101 14.2186 7.9536 13.4684 7.20345C12.7183 6.4533 11.7009 6.03188 10.64 6.03188ZM10.64 12.0319C10.2445 12.0319 9.85778 11.9146 9.52888 11.6948C9.19998 11.4751 8.94363 11.1627 8.79226 10.7972C8.64088 10.4318 8.60128 10.0297 8.67845 9.6417C8.75562 9.25373 8.9461 8.89737 9.2258 8.61766C9.50551 8.33796 9.86188 8.14748 10.2498 8.07031C10.6378 7.99314 11.0399 8.03274 11.4054 8.18412C11.7708 8.33549 12.0832 8.59184 12.303 8.92074C12.5227 9.24964 12.64 9.63632 12.64 10.0319C12.64 10.5623 12.4293 11.071 12.0542 11.4461C11.6792 11.8212 11.1705 12.0319 10.64 12.0319Z" fill="currentColor"/>
</svg>
