<svg width="20" height="18" viewBox="0 0 20 18" fill="none" xmlns="http://www.w3.org/2000/svg">
<path d="M0.00500488 6H19.005C19.2702 6 19.5246 6.10536 19.7121 6.29289C19.8996 6.48043 20.005 6.73478 20.005 7V17C20.005 17.2652 19.8996 17.5196 19.7121 17.7071C19.5246 17.8946 19.2702 18 19.005 18H1.005C0.739788 18 0.485434 17.8946 0.297898 17.7071C0.110362 17.5196 0.00500488 17.2652 0.00500488 17V6ZM1.005 0H16.005V4H0.00500488V1C0.00500488 0.734784 0.110362 0.48043 0.297898 0.292893C0.485434 0.105357 0.739788 0 1.005 0ZM13.005 11V13H16.005V11H13.005Z" fill="#EFEFEF"/>
</svg>
